<svg id="Layer_1" data-name="Layer 1" xmlns="http://www.w3.org/2000/svg" viewBox="0 0 100 100"><defs><style>.cls-1{fill:#fff;}</style></defs><title>cog</title><path class="cls-1" d="M50,85.67H45a1.73,1.73,0,0,1-1.21-.46,1.34,1.34,0,0,1-.43-.83c-.26-1.74-.53-3.47-.79-5.21-.16-1-.32-2-.47-3.08a.25.25,0,0,0-.19-.23,26.62,26.62,0,0,1-3.8-1.56.21.21,0,0,0-.27,0l-6.35,4.83a1.64,1.64,0,0,1-2.14-.06c-1.72-1.64-3.46-3.26-5.14-4.93a33.9,33.9,0,0,1-2.37-2.7,1.68,1.68,0,0,1,0-2.23c1.11-1.47,2.25-2.93,3.37-4.39.43-.55.85-1.12,1.27-1.67a.24.24,0,0,0,0-.32,22.15,22.15,0,0,1-1.73-4.19.23.23,0,0,0-.23-.19l-2.82-.42-3.78-.55c-.49-.08-1-.16-1.49-.22A1.6,1.6,0,0,1,15,55.86c0-.12,0-.24,0-.36V45.66a1.88,1.88,0,0,1,.29-1.09,1.54,1.54,0,0,1,1.12-.72l6.42-1,1.71-.25a.21.21,0,0,0,.21-.18,21.17,21.17,0,0,1,1.66-3.89.25.25,0,0,0,0-.31c-1.49-2.09-3.09-4.1-4.72-6.08L21.5,32a1.4,1.4,0,0,1-.1-1.74,13.49,13.49,0,0,1,1.08-1.41A57.07,57.07,0,0,1,28.36,23a13.27,13.27,0,0,1,1.14-.83,1.49,1.49,0,0,1,2,.1c.67.48,1.31,1,2,1.52l4.24,3.29a.24.24,0,0,0,.29,0,24.08,24.08,0,0,1,3.85-1.61.21.21,0,0,0,.17-.21c.27-2,.53-4,.83-6,.12-.79.3-1.58.48-2.36a1.48,1.48,0,0,1,1.6-1.25H55.08a1.57,1.57,0,0,1,1.63,1.44c.27,1.83.56,3.66.84,5.49.13.85.26,1.69.38,2.54a.37.37,0,0,0,.29.37A25.64,25.64,0,0,1,62,27a.21.21,0,0,0,.25,0l6.32-4.77a1.64,1.64,0,0,1,2.27,0,80.21,80.21,0,0,1,6.77,6.78c.28.33.54.68.8,1A1.66,1.66,0,0,1,78.29,32c-.32.47-.67.93-1,1.38L73.62,38.1a.36.36,0,0,0,0,.45,24.64,24.64,0,0,1,1.69,4,.31.31,0,0,0,.26.23l3.55.54,4.13.63.39.06a1.61,1.61,0,0,1,1.4,1.6c0,.11,0,.23,0,.34,0,3.26,0,6.51,0,9.76a1.69,1.69,0,0,1-1.13,1.67,7.76,7.76,0,0,1-.84.15l-6.42,1-1.17.18a.3.3,0,0,0-.19.16,29.07,29.07,0,0,1-1.68,3.89c-.06.12,0,.19.06.27,1,1.29,2,2.59,3,3.88.56.73,1.16,1.44,1.74,2.16a2,2,0,0,1,.53,1.19,1.6,1.6,0,0,1-.35,1A41.13,41.13,0,0,1,75,75.17a41.67,41.67,0,0,1-3.5,3.28,10.36,10.36,0,0,1-1,.73,1.67,1.67,0,0,1-2.15-.13l-5.51-4.31-.58-.46a.2.2,0,0,0-.26,0,25.36,25.36,0,0,1-3.31,1.42,2,2,0,0,1-.39.13c-.27,0-.32.2-.36.44-.32,2.27-.64,4.54-1,6.81a13.86,13.86,0,0,1-.31,1.39,1.5,1.5,0,0,1-1.61,1.22Zm-11.7-35A11.68,11.68,0,1,0,50.08,39,11.73,11.73,0,0,0,38.33,50.67Z"/></svg>