<svg id="Layer_1" data-name="Layer 1" xmlns="http://www.w3.org/2000/svg" viewBox="0 0 100 100"><defs><style>.cls-1{fill:#fff;}</style></defs><title>sword2</title><path class="cls-1" d="M97.93,75.1c.45-.45.6,23.57.6,23.57s-24-.15-24.09-.08C53,71.64,30.73,41.55,9.27,14.6l5.19-5.19Z"/><path class="cls-1" d="M42.43,8.58l7,7A66.72,66.72,0,0,0,16,48.94L9,42A66.78,66.78,0,0,1,42.43,8.58Z"/><path class="cls-1" d="M16.54,9.26C16,7.61,11.7,1.12,8.74,1.34s-4.81,1-5.6,2S1.57,5.82,1.48,8.71s6.21,7.36,7.79,7.92,4.57-2.46,4.57-2.46S17.05,10.91,16.54,9.26Z"/></svg>