<svg id="Layer_1" data-name="Layer 1" xmlns="http://www.w3.org/2000/svg" viewBox="0 0 100 100"><defs><style>.cls-1{fill:#fff;}</style></defs><title>vuln</title><path class="cls-1" d="M87.55,7.62c0,5,.14,9.88,0,14.74-.51,14.34-1.93,28.55-7,42.1C76.94,73.79,71.75,82,63,87.26c-3.72,2.21-8,3.45-12.1,5a3.75,3.75,0,0,1-2.19-.22C37.93,88.85,30.4,81.74,24.87,72.26c-5.33-9.15-8.11-19.2-9.9-29.53A192.29,192.29,0,0,1,12.4,8.42c0-.21,0-.41.1-.8Zm-71.5,3.44A11.09,11.09,0,0,0,16,12.44C16.7,22,17.08,31.67,18.3,41.2a80,80,0,0,0,8.48,27.4c4.88,9.25,11.67,16.45,21.89,19.8a5.31,5.31,0,0,0,2.79.17A33.28,33.28,0,0,0,69.68,76.88C75.1,70.14,78.05,62.27,80.11,54c3-11.88,3.77-24,4.12-36.19.07-2.24,0-4.48,0-6.77Z"/><path class="cls-1" d="M19.21,14.36c3.82,0,7.25,0,10.68,0a2.06,2.06,0,0,1,1.43.87C36.85,24,42.34,32.69,48,41.72L31.37,46.9c2.76,5.12,5.48,10.16,8.32,15.4l-8.38,7.09C21.91,52.2,19.74,33.62,19.21,14.36Z"/><path class="cls-1" d="M64.19,77.8a27.35,27.35,0,0,1-13.06,7.47A4.53,4.53,0,0,1,48.75,85a31.7,31.7,0,0,1-15.5-12.81l10.66-9-7.68-14.2c2-.61,3.74-1.25,5.57-1.7a1.86,1.86,0,0,1,1.41.75C50.19,57.84,57.13,67.75,64.19,77.8Z"/><path class="cls-1" d="M80.8,14.51a4.1,4.1,0,0,1,.12.55c-.06,2.54.76,5.68-.44,7.46s-4.36,2.09-6.72,2.88C68.17,27.28,62.55,29.05,56.68,31c-2.71-5.4-5.43-10.81-8.25-16.44Z"/><path class="cls-1" d="M77.53,51.47c-3.31.17-6,.36-8.79.39A2.32,2.32,0,0,1,67,51c-3-5.55-5.85-11.16-8.87-17l22.8-7.43C79.74,35.12,78.64,43.24,77.53,51.47Z"/><path class="cls-1" d="M54.93,48l5.61-1.9c1.36,2.56,2.76,5,4,7.53a2.53,2.53,0,0,0,2.84,1.64c2.81-.22,5.63-.28,8.83-.42a54.77,54.77,0,0,1-9,19.52Z"/></svg>