<svg id="Layer_1" data-name="Layer 1" xmlns="http://www.w3.org/2000/svg" viewBox="0 0 100 100"><defs><style>.cls-1{fill:#fff;}</style></defs><title>cog</title><path class="cls-1" d="M50.13,92.43H44.07a2,2,0,0,1-1.44-.55,1.65,1.65,0,0,1-.52-1c-.31-2.07-.62-4.13-.94-6.2-.18-1.23-.38-2.46-.56-3.68,0-.16-.07-.23-.22-.27a32.59,32.59,0,0,1-4.54-1.87.25.25,0,0,0-.32,0L28,84.66a1.94,1.94,0,0,1-2.54-.08c-2.06-1.94-4.14-3.87-6.15-5.87-1-1-1.91-2.12-2.82-3.22a2,2,0,0,1,0-2.67c1.33-1.75,2.69-3.49,4-5.23.51-.66,1-1.33,1.52-2a.29.29,0,0,0,0-.38,26,26,0,0,1-2.07-5,.27.27,0,0,0-.27-.22l-3.37-.5-4.5-.66L10,58.56a1.9,1.9,0,0,1-1.65-1.69c0-.15,0-.3,0-.44q0-5.88,0-11.74a2.3,2.3,0,0,1,.36-1.3A1.78,1.78,0,0,1,10,42.53l7.65-1.16,2.05-.3c.14,0,.2-.07.25-.21a25.26,25.26,0,0,1,2-4.64.31.31,0,0,0,0-.37c-1.78-2.5-3.69-4.89-5.64-7.25l-.18-.23A1.69,1.69,0,0,1,16,26.29a15,15,0,0,1,1.29-1.68,67,67,0,0,1,7-7,13.1,13.1,0,0,1,1.36-1,1.78,1.78,0,0,1,2.36.11c.8.59,1.57,1.21,2.35,1.82l5.06,3.92a.26.26,0,0,0,.34,0,29.39,29.39,0,0,1,4.6-1.92.27.27,0,0,0,.21-.25c.32-2.38.63-4.76,1-7.14.14-.94.36-1.88.58-2.81A1.77,1.77,0,0,1,44,8.91H56.16a1.88,1.88,0,0,1,2,1.72c.32,2.18.66,4.36,1,6.54.16,1,.32,2,.46,3a.45.45,0,0,0,.34.44,29.73,29.73,0,0,1,4.45,1.83.24.24,0,0,0,.3,0c2.51-1.9,5-3.79,7.54-5.69a2,2,0,0,1,2.72,0A99.24,99.24,0,0,1,83,24.89c.33.4.64.82,1,1.23a2,2,0,0,1-.07,2.29c-.39.56-.81,1.1-1.22,1.64q-2.17,2.82-4.36,5.62a.44.44,0,0,0,0,.54,30.83,30.83,0,0,1,2,4.82.35.35,0,0,0,.31.27l4.23.64,4.94.76.45.07a1.92,1.92,0,0,1,1.68,1.9c0,.14,0,.28,0,.42,0,3.88,0,7.76,0,11.64a2,2,0,0,1-1.35,2c-.33.08-.67.12-1,.17l-7.65,1.16c-.46.07-.93.13-1.39.21a.37.37,0,0,0-.23.19,36.66,36.66,0,0,1-2,4.64c-.08.15,0,.23.06.32q1.75,2.33,3.52,4.64c.68.87,1.38,1.72,2.08,2.58a2.32,2.32,0,0,1,.63,1.41,1.87,1.87,0,0,1-.42,1.22A47.74,47.74,0,0,1,80,79.9a49.82,49.82,0,0,1-4.17,3.92,14.71,14.71,0,0,1-1.21.86A2,2,0,0,1,72,84.53l-6.57-5.15c-.23-.18-.47-.35-.69-.54a.26.26,0,0,0-.32,0,29.94,29.94,0,0,1-4,1.7,2.51,2.51,0,0,1-.46.16c-.32,0-.39.24-.43.52q-.57,4.07-1.17,8.12A15.89,15.89,0,0,1,58.07,91a1.79,1.79,0,0,1-1.92,1.46Zm-14-41.76a13.94,13.94,0,1,0,14-14A14,14,0,0,0,36.18,50.67Z"/></svg>