<svg id="Layer_1" data-name="Layer 1" xmlns="http://www.w3.org/2000/svg" viewBox="0 0 100 100"><defs><style>.cls-1{fill:#fff;}</style></defs><title>resi</title><path class="cls-1" d="M30.82,74.67l23.9-24.28L45.4,47.18l9.88-3.4c-3.56-2.08-6.85-4-10.16-5.92L12.74,19.11c-3.49-2-3.49-2-2.77-6.48,3.06.1,6-.36,9.06,1.44,13.84,8.2,27.81,16.19,41.74,24.25.44.25.91.45,1.51.75.79-2.62,1.53-5.12,2.43-8.13,1.16,4,2.32,7.55,3.17,11.16a3.62,3.62,0,0,0,3.22,3.18c2.28.44,4.49,1.19,7.34,2-3,.9-5.45,1.73-8,2.34A2.8,2.8,0,0,0,68.2,51.8c-1,3.15-2.08,6.24-3.33,10L62.82,55,37.17,80.7l2.55,3-21,7.44,8.77-19.55Z"/><path class="cls-1" d="M61.14,60.48l3.48,11.87c2.09-6.18,4.1-12,6-17.79A3.42,3.42,0,0,1,73.27,52c4.67-1.27,9.3-2.68,13.94-4,.43-.13.87-.2,1.66-.38-.4,2-.71,3.79-1.12,5.57-1.71,7.36-4.18,14.39-9,20.34a21.64,21.64,0,0,1-8.21,6.35,3.56,3.56,0,0,1-2.51.05A26.2,26.2,0,0,1,55,68.17a1.62,1.62,0,0,1,0-1.47C57,64.63,59,62.65,61.14,60.48Z"/><path class="cls-1" d="M88.76,46.75C84,45.47,79.24,44,74.41,43c-2.58-.56-3.66-1.79-4.24-4.32-1.07-4.64-2.58-9.19-3.9-13.77-.12-.43-.19-.87-.38-1.77,4.43.22,8.67.22,12.87.69a96.19,96.19,0,0,1,10.42,2.12c.5.12,1.28.84,1.25,1.24-.38,6.31-.87,12.62-1.35,18.93C89.07,46.27,88.92,46.43,88.76,46.75Z"/><path class="cls-1" d="M49.35,28.07c4.42-2.74,9.06-3.81,14.2-4.48-1.08,3.71-2.09,7.18-3.15,10.86Z"/></svg>