<svg id="Layer_1" data-name="Layer 1" xmlns="http://www.w3.org/2000/svg" viewBox="0 0 100 100"><title>legendary</title><path d="M91.66,54.13c0,3.32,0,6.64,0,10a4.34,4.34,0,0,1-1.88,3.83c-5.36,4-10.66,8.08-16,12.09a2,2,0,0,0-.93,1.85c0,3.09,0,6.18,0,9.27,0,2.55-1.23,3.76-3.79,3.78-4.57,0-5.27-.64-5.27-5.24,0-.8,0-1.6,0-2.39a2.05,2.05,0,0,0-2.09-2,2,2,0,0,0-2,2.09c-.05,1.4,0,2.81,0,4.21a3.26,3.26,0,1,1-6.52.1c-.05-1.35,0-2.71,0-4.07a2.11,2.11,0,0,0-2.22-2.34c-1.25,0-2.06.83-2.11,2.29s0,2.71,0,4.07a3.26,3.26,0,1,1-6.51,0c0-1.35,0-2.71,0-4.07a2.1,2.1,0,0,0-2.12-2.28c-1.14,0-1.94.87-2,2.26s0,2.62,0,3.93a3.2,3.2,0,0,1-3.38,3.47c-4.34.2-5.92-.5-5.68-5.43.12-2.48,0-5,0-7.44a2.25,2.25,0,0,0-1-2.09c-5.32-4-10.59-8-15.89-12a4,4,0,0,1-1.89-3.25c0-7.49-.18-15,.27-22.45.59-10,4.84-18.53,12-25.54A39.29,39.29,0,0,1,53,5.11,40.51,40.51,0,0,1,90.87,37.9a19.66,19.66,0,0,1,.51,3.46c.07,4.26,0,8.51,0,12.77Zm-46.51-.06c.05-6.31-4.89-11.16-11.47-11.24-5.84-.08-10.85,5-10.88,11.11a11.18,11.18,0,1,0,22.35.13Zm11.65-.13a11.18,11.18,0,1,0,22.35.13c.06-6.35-5-11.26-11.62-11.24A11.09,11.09,0,0,0,56.8,53.94ZM50.93,73.41h0c1.08,0,2.16.07,3.23,0a1.86,1.86,0,0,0,1.69-2.78c-1-2-2.08-4-3.27-5.88a1.85,1.85,0,0,0-3.25,0q-1.71,2.82-3.19,5.76a1.86,1.86,0,0,0,1.71,2.85C48.87,73.47,49.91,73.41,50.93,73.41Z"/></svg>