<svg id="Layer_1" data-name="Layer 1" xmlns="http://www.w3.org/2000/svg" viewBox="0 0 100 100"><title>reaction</title><path d="M49.37,95.2c1.88-2,3.8-4,5.64-6A82.33,82.33,0,0,0,67,72.9,26.06,26.06,0,0,0,70.07,64c.68-5.17-1.29-9.11-5.55-12A30.91,30.91,0,0,0,53.44,47.8c-1.51-.32-3-.56-4.64-.85V65.86L12.67,34.39,48.74,4.54V21.69c2.66.62,5.21,1.13,7.73,1.81,7.83,2.12,15.3,5.05,21.81,10a24.7,24.7,0,0,1,8,9.67C88.64,48.6,88.17,54,86,59.32a47.33,47.33,0,0,1-9.53,14.12c-7.1,7.67-15.35,14-23.94,19.83-1,.69-2,1.37-3.06,2Z"/></svg>