<svg id="Layer_1" data-name="Layer 1" xmlns="http://www.w3.org/2000/svg" viewBox="0 0 100 100"><title>legendary</title><path d="M95.14,54.48c0,3.6,0,7.21,0,10.82a4.67,4.67,0,0,1-2,4.15c-5.81,4.34-11.57,8.77-17.37,13.13a2.16,2.16,0,0,0-1,2c0,3.35,0,6.71,0,10.06,0,2.77-1.34,4.08-4.12,4.11-5,0-5.71-.7-5.71-5.7,0-.86,0-1.73,0-2.58a2.24,2.24,0,0,0-2.26-2.21,2.16,2.16,0,0,0-2.17,2.27c-.06,1.52,0,3,0,4.57a3.54,3.54,0,1,1-7.07.11c-.06-1.47,0-2.95,0-4.42a2.31,2.31,0,0,0-2.41-2.54,2.25,2.25,0,0,0-2.3,2.48c0,1.47,0,3,0,4.42a3.54,3.54,0,1,1-7.07,0c0-1.47,0-3,0-4.42a2.28,2.28,0,0,0-2.3-2.48c-1.23,0-2.1.95-2.16,2.46s0,2.84,0,4.26a3.48,3.48,0,0,1-3.67,3.77c-4.71.22-6.42-.55-6.16-5.9.13-2.69,0-5.38,0-8.07a2.43,2.43,0,0,0-1.1-2.27C20.36,78.19,14.64,73.8,8.89,69.46a4.29,4.29,0,0,1-2.06-3.53c.06-8.12-.18-16.26.29-24.36.64-10.87,5.26-20.12,13-27.73a42.66,42.66,0,0,1,33-12.56A44,44,0,0,1,94.27,36.87a20.09,20.09,0,0,1,.56,3.76c.07,4.61,0,9.23,0,13.85Zm-50.49-.06c.06-6.85-5.31-12.11-12.45-12.2-6.34-.09-11.77,5.46-11.81,12.06a12.13,12.13,0,1,0,24.26.14Zm12.64-.14a12.13,12.13,0,0,0,24.26.14c.07-6.89-5.44-12.22-12.6-12.2C62.64,42.23,57.32,47.74,57.29,54.28ZM50.93,75.41h0c1.17,0,2.34.07,3.5,0a2,2,0,0,0,1.83-3C55.17,70.2,54,68.05,52.72,66a2,2,0,0,0-3.53.06c-1.24,2-2.39,4.12-3.46,6.24-.8,1.59.06,3,1.85,3.1C48.69,75.47,49.81,75.41,50.93,75.41Z"/></svg>